<svg width="23px" height="13px" viewBox="0 0 23 13" version="1.1" xmlns="http://www.w3.org/2000/svg" xmlns:xlink="http://www.w3.org/1999/xlink">
    <g id="Page-1" stroke="none" stroke-width="1" fill="none" fill-rule="evenodd">
        <g id="iPhone-8-Copy-4" transform="translate(-27.000000, -335.000000)" fill="#000000">
            <path d="M49.7135742,340.363424 L44.6099609,335.284372 C44.2276855,334.903952 43.609375,334.905368 43.2288574,335.287692 C42.8483887,335.669967 42.8498535,336.288278 43.2321289,336.668747 L46.6581055,340.078122 L27.9765625,340.078122 C27.437207,340.078122 27,340.515329 27,341.054684 C27,341.59404 27.437207,342.031247 27.9765625,342.031247 L46.6580566,342.031247 L43.2321777,345.440622 C42.8499023,345.82109 42.8484375,346.439401 43.2289063,346.821676 C43.6094238,347.204049 44.2277832,347.205368 44.6100098,346.824997 L49.7127441,341.746872 C50.0960938,341.364206 50.094873,340.743893 49.7135742,340.363424 Z" id="Path" transform="translate(38.499951, 341.054684) rotate(-180.000000) translate(-38.499951, -341.054684) "></path>
        </g>
    </g>
</svg>