<svg width="22px" height="28px" viewBox="0 0 22 28" version="1.1" xmlns="http://www.w3.org/2000/svg" xmlns:xlink="http://www.w3.org/1999/xlink">
    <g id="Page-1" stroke="none" stroke-width="1" fill="none" fill-rule="evenodd">
        <g id="iPhone-8-Copy-2" transform="translate(-266.000000, -292.000000)" fill="#727272">
            <g id="Group-2" transform="translate(87.000000, 248.000000)">
                <g id="Group" transform="translate(0.000000, 29.000000)">
                    <g id="copy" transform="translate(179.000000, 15.000000)">
                        <path d="M14.9675965,4.85714286 L2.17526064,4.85714286 C0.974922513,4.85714286 0,5.82633053 0,7.01960784 L0,25.2661064 C0,26.4593838 0.974922513,27.4285714 2.17526064,27.4285714 L14.9675965,27.4285714 C16.1679346,27.4285714 17.1428571,26.4593838 17.1428571,25.2661064 L17.1428571,7.01960784 C17.1372218,5.82633053 16.1622992,4.85714286 14.9675965,4.85714286 Z M15.6156664,25.2605042 C15.6156664,25.6190476 15.3226261,25.9103641 14.9619611,25.9103641 L2.16962525,25.9103641 C1.80896027,25.9103641 1.51591998,25.6190476 1.51591998,25.2605042 L1.51591998,7.01960784 C1.51591998,6.66106443 1.80896027,6.3697479 2.16962525,6.3697479 L14.9619611,6.3697479 C15.3226261,6.3697479 15.6156664,6.66106443 15.6156664,7.01960784 L15.6156664,25.2605042 Z" id="Shape" fill-rule="nonzero"></path>
                        <path d="M19.8247394,0 L7.03240349,0 C5.83206537,0 4.85714286,0.969187675 4.85714286,2.16246499 C4.85714286,2.58263305 5.19526627,2.91876751 5.61792054,2.91876751 C6.04057481,2.91876751 6.37869822,2.58263305 6.37869822,2.16246499 C6.37869822,1.80392157 6.67173852,1.51260504 7.03240349,1.51260504 L19.8247394,1.51260504 C20.1854043,1.51260504 20.4784446,1.80392157 20.4784446,2.16246499 L20.4784446,20.4089636 C20.4784446,20.767507 20.1854043,21.0588235 19.8247394,21.0588235 C19.4020851,21.0588235 19.0639617,21.394958 19.0639617,21.8151261 C19.0639617,22.2352941 19.4020851,22.5714286 19.8247394,22.5714286 C21.0250775,22.5714286 22,21.6022409 22,20.4089636 L22,2.16246499 C22,0.969187675 21.0250775,0 19.8247394,0 Z" id="Path"></path>
                    </g>
                </g>
            </g>
        </g>
    </g>
</svg>