<svg width="26px" height="26px" viewBox="0 0 26 26" version="1.1" xmlns="http://www.w3.org/2000/svg" xmlns:xlink="http://www.w3.org/1999/xlink">
    <g id="Page-1" stroke="none" stroke-width="1" fill="none" fill-rule="evenodd">
        <g id="iPhone-8-Copy" transform="translate(-319.000000, -255.000000)">
            <g id="Group-2" transform="translate(20.000000, 189.000000)">
                <g id="Group-3" transform="translate(0.000000, 58.000000)">
                    <g id="remove" transform="translate(299.000000, 8.000000)">
                        <rect id="Rectangle" fill="#DF0404" x="0" y="0" width="26" height="26" rx="5"></rect>
                        <g id="dustbin" transform="translate(7.000000, 6.000000)" fill="#FFFFFF">
                            <path d="M9.577875,13.125 L2.422125,13.125 C2.12440145,13.1233766 1.87674037,12.8956096 1.85025,12.5990625 L1.03275,2.837625 C1.02838836,2.78526028 1.04619995,2.73346828 1.08184681,2.69486273 C1.11749367,2.65625718 1.16770426,2.63438117 1.22025,2.6345625 L10.78125,2.6345625 C10.8337957,2.63438117 10.8840063,2.65625718 10.9196532,2.69486273 C10.9553001,2.73346828 10.9731116,2.78526028 10.96875,2.837625 L10.15125,12.5990625 C10.1247055,12.8961798 9.87617452,13.1241489 9.577875,13.125 Z M1.4235,3.0095625 L2.224125,12.56775 C2.23321816,12.6704863 2.31898861,12.7494341 2.422125,12.75 L9.577875,12.75 C9.68108341,12.7495306 9.76696254,12.6705575 9.7760625,12.56775 L10.5766875,3.0095625 L1.4235,3.0095625 Z" id="Shape" fill-rule="nonzero"></path>
                            <path d="M11.46975,3.01125 L0.53025,3.01125 C0.305978268,3.01094016 0.124247339,2.82920923 0.1239375,2.6049375 L0.1239375,1.65975 C0.124144242,1.43543549 0.305935494,1.25364424 0.53025,1.2534375 L11.46975,1.2534375 C11.6940645,1.25364424 11.8758558,1.43543549 11.8760625,1.65975 L11.8760625,2.605125 C11.8756494,2.82932351 11.6939487,3.01094043 11.46975,3.01125 Z M0.53025,1.6284375 C0.512956584,1.6284375 0.4989375,1.64245658 0.4989375,1.65975 L0.4989375,2.605125 C0.4989375,2.62241842 0.512956584,2.6364375 0.53025,2.6364375 L11.46975,2.6364375 C11.4870434,2.6364375 11.5010625,2.62241842 11.5010625,2.605125 L11.5010625,1.65975 C11.5010625,1.64245658 11.4870434,1.6284375 11.46975,1.6284375 L0.53025,1.6284375 Z" id="Shape" fill-rule="nonzero"></path>
                            <path d="M7.65225,1.6284375 L4.34775,1.6284375 C4.24419661,1.6284375 4.16025,1.54449089 4.16025,1.4409375 L4.16025,0.490875 C4.16055998,0.219900725 4.38015073,0.000309980409 4.651125,0 L7.348875,0 C7.61984927,0.000309980409 7.83944002,0.219900725 7.83975,0.490875 L7.83975,1.4409375 C7.83975,1.54449089 7.75580339,1.6284375 7.65225,1.6284375 Z M4.53525,1.2534375 L7.46475,1.2534375 L7.46475,0.490875 C7.46475,0.426879005 7.412871,0.375 7.348875,0.375 L4.651125,0.375 C4.587129,0.375 4.53525,0.426879005 4.53525,0.490875 L4.53525,1.2534375 Z" id="Shape" fill-rule="nonzero"></path>
                            <path d="M7.961625,10.130625 C7.9561875,10.130625 7.9505625,10.130625 7.945125,10.130625 C7.84199656,10.1215952 7.76570053,10.0306947 7.7746875,9.9275625 L8.203875,5.028 C8.20858452,4.96036729 8.24943716,4.90054478 8.31071806,4.87154451 C8.37199895,4.84254425 8.44416183,4.84888386 8.49944764,4.88812467 C8.55473346,4.92736549 8.58452986,4.99339461 8.577375,5.0608125 L8.148375,9.959625 C8.1398258,10.0563981 8.05877504,10.1306133 7.961625,10.130625 Z" id="Path"></path>
                            <path d="M6,10.130625 C5.89644661,10.130625 5.8125,10.0466784 5.8125,9.943125 L5.8125,5.04375 C5.8125,4.94019661 5.89644661,4.85625 6,4.85625 C6.10355339,4.85625 6.1875,4.94019661 6.1875,5.04375 L6.1875,9.943125 C6.1875,10.0466784 6.10355339,10.130625 6,10.130625 Z" id="Path"></path>
                            <path d="M4.038375,10.130625 C3.94087137,10.1309946 3.85935718,10.0565722 3.850875,9.9594375 L3.422625,5.0600625 C3.41547014,4.99264461 3.44526654,4.92661549 3.50055236,4.88737467 C3.55583817,4.84813386 3.62800105,4.84179425 3.68928194,4.87079451 C3.75056284,4.89979478 3.79141548,4.95961729 3.796125,5.02725 L4.2253125,9.9268125 C4.23429947,10.0299447 4.15800344,10.1208452 4.054875,10.129875 C4.05,10.1304375 4.0438125,10.130625 4.038375,10.130625 Z" id="Path"></path>
                        </g>
                    </g>
                </g>
            </g>
        </g>
    </g>
</svg>