<svg width="77px" height="26px" viewBox="0 0 77 26" version="1.1" xmlns="http://www.w3.org/2000/svg" xmlns:xlink="http://www.w3.org/1999/xlink">
    <g id="Page-1" stroke="none" stroke-width="1" fill="none" fill-rule="evenodd">
        <g id="iPhone-8" transform="translate(-149.000000, -18.000000)" fill="#000000">
            <path d="M161.444,43.432 C159.086655,43.432 156.961676,42.9106719 155.069,41.868 C153.176324,40.8253281 151.691672,39.3803426 150.615,37.533 C149.538328,35.6856574 149,33.6173448 149,31.328 C149,29.0386552 149.538328,26.9703426 150.615,25.123 C151.691672,23.2756574 153.18199,21.8306719 155.086,20.788 C156.99001,19.7453281 159.120655,19.224 161.478,19.224 C163.246009,19.224 164.877993,19.5186637 166.374,20.108 C167.870007,20.6973363 169.139328,21.558661 170.182,22.692 L168.584,24.29 C166.725324,22.4086573 164.379347,21.468 161.546,21.468 C159.664657,21.468 157.953341,21.8986624 156.412,22.76 C154.870659,23.6213376 153.663671,24.7999925 152.791,26.296 C151.918329,27.7920075 151.482,29.469324 151.482,31.328 C151.482,33.186676 151.918329,34.8639925 152.791,36.36 C153.663671,37.8560075 154.870659,39.0346624 156.412,39.896 C157.953341,40.7573376 159.664657,41.188 161.546,41.188 C164.402014,41.188 166.747991,40.2360095 168.584,38.332 L170.182,39.93 C169.139328,41.063339 167.864341,41.9303303 166.357,42.531 C164.849659,43.1316697 163.212009,43.432 161.444,43.432 Z M181.3,25.208 C183.634678,25.208 185.425327,25.7916608 186.672,26.959 C187.918673,28.1263392 188.542,29.8546552 188.542,32.144 L188.542,43.228 L186.23,43.228 L186.23,40.44 C185.685997,41.369338 184.887005,42.0946641 183.833,42.616 C182.778995,43.1373359 181.526674,43.398 180.076,43.398 C178.081323,43.398 176.494673,42.9220048 175.316,41.97 C174.137327,41.0179952 173.548,39.7600078 173.548,38.196 C173.548,36.6773257 174.097661,35.453338 175.197,34.524 C176.296339,33.594662 178.047321,33.13 180.45,33.13 L186.128,33.13 L186.128,32.042 C186.128,30.500659 185.697338,29.3276707 184.836,28.523 C183.974662,27.7183293 182.716675,27.316 181.062,27.316 C179.928661,27.316 178.840672,27.5029981 177.798,27.877 C176.755328,28.2510019 175.860004,28.7666634 175.112,29.424 L174.024,27.622 C174.930671,26.8513295 176.01866,26.2563354 177.288,25.837 C178.55734,25.4176646 179.89466,25.208 181.3,25.208 Z M180.45,41.494 C181.810007,41.494 182.977328,41.1823365 183.952,40.559 C184.926672,39.9356636 185.651998,39.0346726 186.128,37.856 L186.128,34.932 L180.518,34.932 C177.457985,34.932 175.928,35.9973227 175.928,38.128 C175.928,39.1706719 176.324663,39.9923303 177.118,40.593 C177.911337,41.1936697 179.021993,41.494 180.45,41.494 Z M195.104,18 L197.518,18 L197.518,43.228 L195.104,43.228 L195.104,18 Z M211.662,43.398 C209.893991,43.398 208.313007,43.0126705 206.919,42.242 C205.524993,41.4713295 204.431337,40.389007 203.638,38.995 C202.844663,37.600993 202.448,36.0313421 202.448,34.286 C202.448,32.5406579 202.844663,30.9766736 203.638,29.594 C204.431337,28.2113264 205.524993,27.1346705 206.919,26.364 C208.313007,25.5933295 209.893991,25.208 211.662,25.208 C213.203341,25.208 214.580327,25.5083303 215.793,26.109 C217.005673,26.7096697 217.96333,27.5879942 218.666,28.744 L216.864,29.968 C216.274664,29.0839956 215.526671,28.4210022 214.62,27.979 C213.713329,27.5369978 212.727339,27.316 211.662,27.316 C210.369994,27.316 209.208338,27.6049971 208.177,28.183 C207.145662,28.7610029 206.341003,29.5826613 205.763,30.648 C205.184997,31.7133387 204.896,32.9259932 204.896,34.286 C204.896,35.6686736 205.184997,36.8869947 205.763,37.941 C206.341003,38.9950053 207.145662,39.8109971 208.177,40.389 C209.208338,40.9670029 210.369994,41.256 211.662,41.256 C212.727339,41.256 213.713329,41.0406688 214.62,40.61 C215.526671,40.1793312 216.274664,39.5220044 216.864,38.638 L218.666,39.862 C217.96333,41.0180058 217.000006,41.8963303 215.776,42.497 C214.551994,43.0976697 213.180674,43.398 211.662,43.398 Z M223.63,43.398 C223.131331,43.398 222.706335,43.2166685 222.355,42.854 C222.003665,42.4913315 221.828,42.0493359 221.828,41.528 C221.828,41.0066641 222.003665,40.5703351 222.355,40.219 C222.706335,39.8676649 223.131331,39.692 223.63,39.692 C224.128669,39.692 224.559332,39.8676649 224.922,40.219 C225.284668,40.5703351 225.466,41.0066641 225.466,41.528 C225.466,42.0493359 225.284668,42.4913315 224.922,42.854 C224.559332,43.2166685 224.128669,43.398 223.63,43.398 Z" id="Calc.-Copy"></path>
        </g>
    </g>
</svg>